# Blender v2.63 (sub 0) OBJ File: 'zminecraft.blend'
# www.blender.org
mtllib minezombie.mtl
o Hipp_Cube.256
v 5.460788 0.742381 7.548592
v 5.460788 0.742381 8.884367
v 3.541705 0.742381 8.884367
v 3.541706 0.742381 7.548592
v 5.460788 1.662449 7.548592
v 5.460787 1.662449 8.884367
v 3.541705 1.662449 8.884367
v 3.541705 1.662449 7.548592
vn 0.000000 -1.000000 0.000000
vn 0.000000 1.000000 0.000000
vn 1.000000 0.000000 0.000001
vn -0.000000 0.000000 1.000000
vn -1.000000 -0.000001 -0.000000
vn 0.000000 0.000000 -1.000000
usemtl 
s off
f 1//1 2//1 3//1 4//1
f 5//2 8//2 7//2 6//2
f 1//3 5//3 6//3 2//3
f 2//4 6//4 7//4 3//4
f 3//5 7//5 8//5 4//5
f 5//6 1//6 4//6 8//6
o Head_Cube.255
v 4.816899 1.432570 8.181120
v 4.816899 1.432570 8.812426
v 4.185594 1.432570 8.812426
v 4.185594 1.432570 8.181120
v 4.816899 2.063875 8.181120
v 4.816899 2.063875 8.812426
v 4.185594 2.063875 8.812426
v 4.185594 2.063875 8.181120
vn 1.000000 0.000000 0.000000
vn -1.000000 -0.000000 -0.000000
usemtl 
s off
f 9//1 10//1 11//1 12//1
f 9//7 13//7 14//7 10//7
f 9//6 12//6 16//6 13//6
f 10//4 14//4 15//4 11//4
f 11//8 15//8 16//8 12//8
f 13//2 16//2 15//2 14//2
o IK.Ring_Circle
v 5.668837 1.377685 8.301734
v 5.749624 1.377685 8.496773
v 5.668837 1.377685 8.691812
v 5.278759 1.377685 8.691812
v 5.278759 1.377685 8.301734
v 5.579657 1.377685 8.241205
v 5.729365 1.377685 8.390914
v 5.729365 1.377685 8.602632
v 5.579657 1.377685 8.752340
v 5.367939 1.377685 8.752340
v 5.218231 1.377685 8.602632
v 5.218231 1.377685 8.390914
v 5.367939 1.377685 8.241205
v 5.473798 1.271826 8.241205
v 5.473798 1.122118 8.390914
v 5.473798 1.122118 8.602632
v 5.473798 1.271826 8.752340
v 5.473798 1.483544 8.752340
v 5.473798 1.633253 8.602632
v 5.473798 1.633253 8.390914
v 5.473798 1.483544 8.241205
v 5.473798 1.182647 8.301734
v 5.473798 1.101859 8.496773
v 5.473798 1.182647 8.691812
v 5.473798 1.377685 8.772599
v 5.473798 1.572724 8.691812
v 5.473798 1.572724 8.301734
v 5.473798 1.377685 8.220946
v 5.668837 1.572724 8.496773
v 5.473798 1.653512 8.496773
v 5.278759 1.572724 8.496773
v 5.197971 1.377685 8.496773
v 5.278759 1.182647 8.496773
v 5.668837 1.182647 8.496773
v 5.729365 1.483544 8.496773
v 5.579657 1.633253 8.496773
v 5.367939 1.633253 8.496773
v 5.218231 1.483544 8.496773
v 5.218231 1.271826 8.496773
v 5.367939 1.122118 8.496773
v 5.579657 1.122118 8.496773
v 5.729365 1.271826 8.496773
f 17 22
f 17 23
f 18 23
f 18 24
f 19 24
f 19 25
f 20 26
f 20 27
f 21 28
f 21 29
f 38 30
f 44 30
f 38 31
f 31 39
f 39 32
f 40 32
f 33 40
f 33 41
f 34 41
f 34 42
f 42 35
f 43 36
f 43 37
f 44 37
f 51 45
f 45 52
f 52 46
f 53 46
f 47 53
f 54 47
f 54 48
f 55 48
f 55 49
f 49 56
f 57 50
f 58 50
f 18 58
f 57 39
f 56 39
f 18 51
f 36 46
f 35 46
f 29 44
f 28 48
f 27 48
f 26 41
f 25 41
f 22 44
o Cube.178_Cube.190
v 0.250269 0.739056 -0.125006
v 0.250269 0.739056 0.125006
v -0.250269 0.739056 0.125006
v -0.250269 0.739056 -0.125006
v 0.250269 1.488893 -0.125006
v 0.250269 1.488893 0.125006
v -0.250269 1.488893 0.125006
v -0.250269 1.488893 -0.125006
vt 0.062500 0.375000
vt 0.125000 0.375000
vt 0.125000 0.500000
vt 0.062500 0.500000
vt 0.437500 0.500000
vt 0.312500 0.500000
vt 0.312500 0.375000
vt 0.437500 0.375000
vt 0.500000 0.000000
vt 0.500000 0.375000
vt 0.437500 0.000000
vt 0.312500 0.000000
vt 0.250000 0.375000
vt 0.250000 0.000000
vt 0.625000 0.000000
vt 0.625000 0.375000
usemtl zombie_zombie.png
s off
f 59/1/1 60/2/1 61/3/1 62/4/1
f 63/5/2 66/6/2 65/7/2 64/8/2
f 59/9/3 63/10/3 64/8/3 60/11/3
f 60/11/4 64/8/4 65/7/4 61/12/4
f 66/13/8 62/14/8 61/12/8 65/7/8
f 63/10/6 59/9/6 62/15/6 66/16/6
o Cube.188_Cube.200
v 0.500527 0.739099 -0.125006
v 0.500527 0.739099 0.125006
v 0.250379 0.739100 0.125005
v 0.250379 0.739100 -0.125006
v 0.500527 1.488893 -0.125006
v 0.500526 1.488893 0.125006
v 0.250379 1.488893 0.125005
v 0.250379 1.488893 -0.125006
vt 0.812500 0.500000
vt 0.812500 0.375000
vt 0.750000 0.375000
vt 0.750000 0.500000
vt 0.687500 0.500000
vt 0.687500 0.375000
vt 0.625000 0.000000
vt 0.625000 0.375000
vt 0.687500 0.000000
vt 0.750000 0.000000
vt 0.812500 0.000000
vt 0.875000 0.375000
vt 0.875000 0.000000
vn -0.000001 -1.000000 0.000000
vn -0.000001 -0.000000 1.000000
vn 0.000001 0.000000 -1.000000
usemtl zombie_zombie.png
s off
f 67/17/9 68/18/9 69/19/9 70/20/9
f 71/21/2 74/20/2 73/19/2 72/22/2
f 67/23/7 71/24/7 72/22/7 68/25/7
f 68/25/10 72/22/10 73/19/10 69/26/10
f 74/18/8 70/27/8 69/26/8 73/19/8
f 71/28/11 67/29/11 70/27/11 74/18/11
o Cube.187_Cube.199
v 0.250260 1.489794 -0.249677
v 0.250260 1.489794 0.249562
v -0.250277 1.489794 0.249561
v -0.250277 1.489794 -0.249677
v 0.250260 1.990331 -0.249677
v 0.250259 1.990331 0.249562
v -0.250277 1.990331 0.249561
v -0.250277 1.990331 -0.249677
vt 0.250000 0.750000
vt 0.375000 0.750000
vt 0.375000 1.000000
vt 0.250000 1.000000
vt 0.125000 1.000000
vt 0.125000 0.750000
vt 0.375000 0.500000
vt 0.250000 0.500000
vt 0.125000 0.500000
vt 0.000000 0.750000
vt 0.000000 0.500000
vt 0.500000 0.500000
vt 0.500000 0.750000
usemtl zombie_zombie.png
s off
f 75/30/1 76/31/1 77/32/1 78/33/1
f 79/33/2 82/34/2 81/35/2 80/30/2
f 75/36/7 79/31/7 80/30/7 76/37/7
f 76/37/10 80/30/10 81/35/10 77/38/10
f 82/39/8 78/40/8 77/38/8 81/35/8
f 79/31/11 75/36/11 78/41/11 82/42/11
o Cube.186_Cube.198
v -0.250285 0.739100 -0.125007
v -0.250285 0.739100 0.125004
v -0.500579 0.739100 0.125004
v -0.500579 0.739100 -0.125007
v -0.250285 1.488893 -0.125007
v -0.250285 1.488893 0.125004
v -0.500579 1.488893 0.125004
v -0.500579 1.488893 -0.125007
vt 0.812500 0.500000
vt 0.812500 0.375000
vt 0.750000 0.375000
vt 0.750000 0.500000
vt 0.687500 0.500000
vt 0.687500 0.375000
vt 0.750000 0.000000
vt 0.812500 0.000000
vt 0.687500 0.000000
vt 0.625000 0.375000
vt 0.625000 0.000000
vt 0.875000 0.000000
vt 0.875000 0.375000
usemtl zombie_zombie.png
s off
f 83/43/1 84/44/1 85/45/1 86/46/1
f 87/46/2 90/47/2 89/48/2 88/45/2
f 83/49/3 87/45/3 88/44/3 84/50/3
f 84/49/10 88/45/10 89/48/10 85/51/10
f 90/52/8 86/53/8 85/51/8 89/48/8
f 87/44/11 83/50/11 86/54/11 90/55/11
o Cube.185_Cube.197
v 0.248804 -0.011542 -0.125050
v 0.248804 -0.011542 0.125087
v -0.001641 -0.011542 0.125086
v -0.001641 -0.011542 -0.125050
v 0.248804 0.739075 -0.125050
v 0.248804 0.739075 0.125087
v -0.001641 0.739075 0.125086
v -0.001641 0.739075 -0.125050
vt 0.187500 0.500000
vt 0.187500 0.375000
vt 0.125000 0.375000
vt 0.125000 0.500000
vt 0.062500 0.375000
vt 0.062500 0.500000
vt 0.000000 0.000000
vt 0.000000 0.375000
vt 0.062500 0.000000
vt 0.125000 0.000000
vt 0.187500 0.000000
vt 0.250000 0.375000
vt 0.250000 0.000000
usemtl zombie_zombie.png
s off
f 91/56/1 92/57/1 93/58/1 94/59/1
f 95/60/2 98/61/2 97/59/2 96/58/2
f 91/62/7 95/63/7 96/60/7 92/64/7
f 92/64/10 96/60/10 97/58/10 93/65/10
f 98/57/8 94/66/8 93/65/8 97/58/8
f 95/67/11 91/68/11 94/66/11 98/57/11
o Cube.182_Cube.194
v -0.250019 0.739075 -0.125050
v -0.250019 0.739075 0.125086
v -0.001642 0.739075 0.125087
v -0.001642 0.739075 -0.125050
v -0.250019 -0.011542 -0.125050
v -0.250019 -0.011542 0.125086
v -0.001642 -0.011542 0.125087
v -0.001642 -0.011542 -0.125050
vt 0.187500 0.000000
vt 0.187500 0.375000
vt 0.250000 0.375000
vt 0.250000 0.000000
vt 0.000000 0.375000
vt 0.000000 0.000000
vt 0.062500 0.000000
vt 0.062500 0.375000
vt 0.125000 0.375000
vt 0.125000 0.000000
vt 0.062500 0.500000
vt 0.125000 0.500000
vt 0.187500 0.500000
usemtl zombie_zombie.png
s off
f 103/69/11 99/70/11 102/71/11 106/72/11
f 99/73/8 103/74/8 104/75/8 100/76/8
f 105/75/10 101/76/10 100/77/10 104/78/10
f 106/69/7 102/70/7 101/77/7 105/78/7
f 102/76/2 99/79/2 100/80/2 101/77/2
f 106/81/1 105/70/1 104/77/1 103/80/1
o Sphere
v 15.277575 42.218700 51.281456
v 15.537650 30.585272 58.322849
v 15.277575 17.819141 63.007282
v 2.002208 18.385492 64.185768
v 2.002202 31.162716 59.524418
v 2.002208 42.785049 52.459942
v -11.273160 42.218697 51.281452
v -11.533243 30.585266 58.322838
v -11.273160 17.819139 63.007278
vt 1.000000 0.500000
vt 1.000000 1.000000
vt 0.500000 1.000000
vt 0.500000 0.500000
vt 1.000000 0.000000
vt 0.500000 0.000000
vt 0.000000 0.500000
vt 0.000000 0.000000
vt 0.000000 1.000000
vn -0.097995 -0.431043 -0.896969
vn -0.097537 -0.341075 -0.934935
vn 0.000000 -0.342692 -0.939421
vn 0.000000 -0.433149 -0.901303
vn -0.097537 -0.516923 -0.850429
vn 0.000000 -0.519395 -0.854518
vn 0.097995 -0.431043 -0.896969
vn 0.097537 -0.516923 -0.850429
vn 0.097537 -0.341075 -0.934935
usemtl sun_sun.png
s 1
f 108/82/12 109/83/13 110/84/14 111/85/15
f 107/86/16 108/82/12 111/85/15 112/87/17
f 112/87/17 111/85/15 114/88/18 113/89/19
f 111/85/15 110/84/14 115/90/20 114/88/18
