# Blender v2.63 (sub 0) OBJ File: 'zombie.blend'
# www.blender.org
mtllib zombie.mtl
o Cube
v 1.000000 0.000000 -1.000000
v 1.000000 0.000000 1.000000
v -1.000000 0.000000 1.000000
v -1.000000 0.000000 -1.000000
v 1.000000 4.000000 -0.999999
v 0.999999 4.000000 1.000001
v -1.000000 4.000000 1.000000
v -1.000000 4.000000 -1.000000
vt 0.332314 0.333333
vt 0.333333 0.665647
vt 0.001020 0.666667
vt 0.000000 0.334353
vt 1.000000 0.001020
vt 0.998981 0.333333
vt 0.666667 0.332314
vt 0.667686 0.000000
vt 1.000000 0.665647
vt 0.667686 0.666667
vt 0.666667 0.334353
vt 0.334353 0.333333
vt 0.333333 0.001020
vt 0.665647 0.000000
vt 0.665647 0.333333
vt 0.666667 0.665647
vt 0.334353 0.666667
vt 0.333333 0.334353
vt 0.332314 0.000000
vt 0.333333 0.332314
vt 0.001020 0.333333
vt 0.000000 0.001020
vn 0.000000 -1.000000 0.000000
vn 0.000000 1.000000 0.000000
vn 1.000000 0.000000 0.000000
vn -0.000000 -0.000000 1.000000
vn -1.000000 -0.000000 -0.000000
vn 0.000000 0.000000 -1.000000
usemtl skin_zombietex
s off
f 1/1/1 2/2/1 3/3/1 4/4/1
f 5/5/2 8/6/2 7/7/2 6/8/2
f 1/6/3 5/9/3 6/10/3 2/11/3
f 2/12/4 6/13/4 7/14/4 3/7/4
f 3/15/5 7/16/5 8/17/5 4/18/5
f 5/19/6 1/20/6 4/21/6 8/22/6
